# xmcd
#
# Track frame offsets:
#       150
#       14072
#       22764
#       34080
#       44827
#       57391
#       66998
#       76146
#       88199
#       100373
#       112635
#       122027
#
# Disc length: 1774 seconds
#
# Revision: 2
# Processed by: cddbd v1.5.2PL0 Copyright (c) Steve Scherf et al.
# Submitted via: FreeDbEdit v0.1
#
DISCID=9b06ec0c
DTITLE=The Stanley Brothers - I'll Meet You in Church Sunday Morning
DYEAR=1998
DGENRE=Country
TTITLE0=I'll Meet You in Church Sunday Morning
TTITLE1=This World Is Not My Home
TTITLE2=Working on a Building
TTITLE3=Wings of Angels
TTITLE4=Mother's Only Sleeping
TTITLE5=Who Will Sing for Me
TTITLE6=My Lord's Gonna Set Me Free
TTITLE7=Purple Robe
TTITLE8=This Wicked Path of Sin
TTITLE9=Harbor of Love
TTITLE10=Seek Jesus (He Still May Be Found)
TTITLE11=Are You Ready
EXTD=YEAR: 1998
EXTT0=
EXTT1=
EXTT2=
EXTT3=
EXTT4=
EXTT5=
EXTT6=
EXTT7=
EXTT8=
EXTT9=
EXTT10=
EXTT11=
PLAYORDER=
